<svg width="9" height="9" viewBox="0 0 9 9" fill="none" xmlns="http://www.w3.org/2000/svg">
<path d="M4.33025 0C5.4787 0 6.58011 0.375522 7.39219 1.04395C8.20427 1.71239 8.66049 2.61898 8.66049 3.56428C8.66049 5.07042 7.37474 6.71182 4.83655 8.50602C4.69542 8.60581 4.51547 8.66062 4.32941 8.66049C4.14336 8.66036 3.96353 8.60529 3.82261 8.50529L3.65473 8.38538C1.2289 6.63797 0 5.03679 0 3.56428C0 2.61898 0.456221 1.71239 1.2683 1.04395C2.08038 0.375522 3.18179 0 4.33025 0ZM4.33025 0.548351C3.35848 0.548351 2.42651 0.8661 1.73937 1.4317C1.05222 1.99729 0.666192 2.76441 0.666192 3.56428C0.666192 4.8445 1.79783 6.31956 4.09219 7.97193L4.25785 8.09C4.27799 8.10426 4.30368 8.1121 4.33025 8.1121C4.35681 8.1121 4.3825 8.10426 4.40264 8.09C6.80803 6.38939 7.9943 4.87484 7.9943 3.56428C7.9943 3.16822 7.89952 2.77604 7.71539 2.41013C7.53125 2.04423 7.26136 1.71175 6.92112 1.4317C6.58088 1.15164 6.17696 0.92949 5.73242 0.777925C5.28787 0.62636 4.81142 0.548351 4.33025 0.548351ZM4.33025 2.1934C4.77196 2.1934 5.19558 2.33784 5.50792 2.59492C5.82025 2.85201 5.99572 3.2007 5.99572 3.56428C5.99572 3.92786 5.82025 4.27655 5.50792 4.53364C5.19558 4.79073 4.77196 4.93516 4.33025 4.93516C3.88853 4.93516 3.46491 4.79073 3.15257 4.53364C2.84024 4.27655 2.66477 3.92786 2.66477 3.56428C2.66477 3.2007 2.84024 2.85201 3.15257 2.59492C3.46491 2.33784 3.88853 2.1934 4.33025 2.1934ZM4.33025 2.74175C4.06522 2.74175 3.81105 2.82841 3.62364 2.98267C3.43624 3.13692 3.33096 3.34613 3.33096 3.56428C3.33096 3.78243 3.43624 3.99164 3.62364 4.1459C3.81105 4.30015 4.06522 4.38681 4.33025 4.38681C4.59527 4.38681 4.84945 4.30015 5.03685 4.1459C5.22425 3.99164 5.32953 3.78243 5.32953 3.56428C5.32953 3.34613 5.22425 3.13692 5.03685 2.98267C4.84945 2.82841 4.59527 2.74175 4.33025 2.74175Z" fill="#8A8A8A"/>
</svg>
